<?xml version="1.0" standalone="no"?>
<!DOCTYPE svg PUBLIC "-//W3C//DTD SVG 20010904//EN"
 "http://www.w3.org/TR/2001/REC-SVG-20010904/DTD/svg10.dtd">
<svg version="1.0" xmlns="http://www.w3.org/2000/svg"
 width="1536.000000pt" height="1024.000000pt" viewBox="0 0 1536.000000 1024.000000"
 preserveAspectRatio="xMidYMid meet">

<g transform="translate(0.000000,1024.000000) scale(0.100000,-0.100000)"
fill="#000000" stroke="none">
<path d="M4430 6889 c-202 -53 -333 -200 -379 -426 -12 -56 -21 -103 -21 -106
0 -3 -18 -12 -40 -21 -73 -29 -80 -43 -80 -159 0 -123 7 -137 85 -166 31 -12
58 -21 60 -21 3 0 5 25 5 55 0 51 2 56 28 66 15 6 50 12 77 15 31 2 41 1 26
-4 -21 -7 -22 -9 -7 -21 9 -7 16 -10 16 -5 0 5 4 4 8 -2 11 -17 53 2 46 20 -3
8 -13 16 -22 18 -50 11 206 33 383 33 222 0 405 -13 345 -25 -54 -11 -255 -66
-350 -95 -250 -78 -483 -212 -530 -305 -18 -35 -20 -59 -20 -202 0 -163 0
-163 19 -133 76 125 305 253 661 371 188 63 349 136 402 182 19 18 42 32 49
32 8 0 38 11 67 25 36 17 55 33 63 52 12 31 5 194 -9 220 -5 8 -31 27 -58 42
l-49 26 -17 84 c-49 236 -198 399 -415 455 -86 22 -248 20 -343 -5z m439 -124
c81 -64 164 -203 173 -291 3 -26 0 -29 -22 -26 -45 5 -67 29 -90 99 -27 80
-70 175 -100 221 -28 41 -16 41 39 -3z m57 -276 c8 -6 14 -14 14 -18 0 -3
-106 -6 -235 -6 -194 0 -228 2 -200 12 88 30 389 39 421 12z m97 -118 c143
-25 219 -46 247 -69 18 -14 23 -32 27 -101 6 -80 5 -84 -13 -77 -10 5 -31 13
-46 18 -16 5 -28 17 -29 26 -1 10 -2 45 -3 80 -2 73 -5 76 -90 91 -145 24
-139 24 -131 4 5 -10 10 -40 11 -68 2 -27 3 -55 3 -62 1 -6 9 -14 19 -17 9 -2
-35 -2 -98 2 -63 4 -214 7 -335 6 -121 0 -202 2 -180 5 l39 6 -3 49 c-1 27 -7
59 -11 72 -7 18 -5 24 8 27 34 9 -86 7 -168 -3 -152 -18 -140 -11 -140 -94 0
-40 5 -77 11 -83 8 -8 -1 -13 -33 -18 -58 -9 -121 -26 -132 -37 -19 -16 -25
-8 -15 21 6 16 9 54 7 85 -3 42 0 60 12 70 32 28 221 68 410 86 157 15 497 4
633 -19z m-690 -178 c-13 -2 -33 -2 -45 0 -13 2 -3 4 22 4 25 0 35 -2 23 -4z
m-110 -10 c-7 -2 -19 -2 -25 0 -7 3 -2 5 12 5 14 0 19 -2 13 -5z"/>
<path d="M7555 5903 c-55 -9 -101 -16 -102 -17 -2 -2 -161 -855 -168 -907 l-7
-46 84 -13 c124 -19 249 -10 320 22 151 70 247 248 248 458 0 119 -47 193
-132 206 -57 10 -98 -3 -155 -46 -29 -22 -53 -38 -53 -36 0 2 18 88 40 191 43
202 44 206 33 204 -5 -1 -53 -8 -108 -16z m149 -445 c35 -50 6 -245 -52 -352
-27 -50 -76 -90 -123 -101 -15 -4 -30 -2 -33 3 -7 11 43 262 68 347 19 63 69
125 101 125 13 0 31 -10 39 -22z"/>
<path d="M5506 5868 c-3 -12 -37 -219 -76 -458 -40 -239 -74 -447 -77 -462
l-5 -28 199 0 c110 0 226 5 259 10 191 34 304 147 304 307 0 95 -47 162 -131
187 l-44 14 56 25 c112 49 178 133 186 236 6 75 -23 125 -92 160 -49 26 -53
26 -312 29 l-262 4 -5 -24z m394 -123 c34 -18 45 -48 37 -110 -6 -56 -26 -88
-79 -122 -34 -23 -55 -28 -116 -32 -74 -3 -75 -3 -69 20 3 13 15 77 27 142
l22 117 75 0 c47 0 85 -6 103 -15z m-84 -384 c73 -33 91 -127 44 -221 -21 -40
-42 -61 -87 -84 -38 -19 -167 -33 -176 -18 -4 5 4 65 17 133 14 68 27 143 31
167 l7 42 61 0 c39 0 77 -7 103 -19z"/>
<path d="M9167 5673 c-20 -120 -57 -337 -82 -482 -25 -146 -45 -266 -45 -268
0 -2 51 -3 113 -3 l113 0 28 173 c15 94 30 182 33 194 5 22 9 23 161 25 l156
3 12 65 c7 36 13 68 13 73 1 4 -69 7 -154 7 -91 0 -155 4 -155 9 0 10 36 204
45 249 5 22 8 22 164 22 l159 0 7 43 c3 23 9 57 12 75 l5 32 -274 0 -275 0
-36 -217z"/>
<path d="M9788 5678 c-20 -117 -53 -312 -74 -433 -54 -317 -48 -332 130 -328
54 2 101 4 103 6 1 2 6 23 9 48 6 42 5 44 -25 56 -28 10 -31 15 -31 56 0 25
11 106 24 179 14 73 43 237 65 363 23 127 43 238 45 248 4 15 -6 17 -103 17
l-107 0 -36 -212z"/>
<path d="M5150 5725 c-30 -57 -168 -128 -423 -219 -328 -117 -459 -183 -569
-284 -93 -86 -98 -102 -98 -294 0 -154 1 -161 16 -133 22 43 50 71 129 130
127 94 316 184 565 270 191 66 327 132 370 181 l30 35 0 169 c0 94 -1 170 -3
170 -2 0 -10 -11 -17 -25z m-425 -245 c-27 -12 -43 -12 -25 0 8 5 22 9 30 9
10 0 8 -3 -5 -9z m5 -30 c0 -13 -5 -18 -15 -14 -16 7 -19 17 -8 27 12 13 23 7
23 -13z m-3 -52 c-3 -8 -6 -5 -6 6 -1 11 2 17 5 13 3 -3 4 -12 1 -19z m-11
-205 c-22 -7 -41 -11 -43 -9 -3 2 5 7 16 11 12 3 19 10 16 14 -2 5 8 6 23 3
26 -5 25 -6 -12 -19z"/>
<path d="M6455 5597 c-176 -46 -287 -186 -315 -400 -25 -184 37 -287 170 -287
66 0 104 19 163 83 l47 52 -6 -62 -6 -63 95 0 94 0 7 93 c3 50 26 193 50 317
24 123 42 228 40 231 -22 36 -248 59 -339 36z m131 -112 c-3 -9 -17 -72 -32
-142 -33 -164 -56 -224 -100 -262 -41 -37 -68 -39 -88 -8 -25 40 -28 85 -11
165 35 160 114 262 204 262 26 0 32 -3 27 -15z"/>
<path d="M7225 5591 c-49 -22 -88 -61 -127 -123 -16 -27 -31 -48 -34 -48 -4 0
5 80 16 133 l8 37 -104 0 c-92 0 -104 -2 -104 -17 -1 -77 -53 -414 -96 -620
l-6 -33 111 0 111 0 0 38 c0 49 26 203 45 267 31 109 105 176 203 183 l59 4
12 77 c6 42 14 86 17 99 6 20 3 22 -32 22 -22 0 -57 -9 -79 -19z"/>
<path d="M8203 5592 c-162 -58 -266 -221 -267 -418 0 -179 87 -265 266 -265
128 1 238 38 238 80 0 10 3 39 6 65 l7 46 -44 -25 c-138 -76 -261 -44 -263 70
-1 37 1 40 29 43 54 4 169 34 206 53 93 47 142 118 141 205 -1 108 -56 156
-186 161 -60 3 -94 -1 -133 -15z m135 -126 c10 -83 -45 -163 -135 -196 -61
-23 -63 -20 -39 61 34 112 85 172 140 167 26 -3 32 -8 34 -32z"/>
<path d="M8955 5591 c-43 -20 -97 -73 -139 -136 -30 -46 -32 -36 -12 68 l13
67 -102 0 -103 0 -7 -67 c-10 -95 -30 -226 -58 -383 -14 -74 -28 -154 -32
-177 l-7 -43 105 0 104 0 7 58 c11 92 44 240 64 285 41 92 115 146 199 147
l42 0 11 58 c6 31 16 73 21 92 5 19 9 38 9 43 0 14 -75 6 -115 -12z"/>
<path d="M10258 5596 c-57 -20 -123 -63 -152 -97 -67 -79 -106 -199 -106 -324
0 -104 20 -164 70 -209 47 -42 93 -56 185 -56 56 0 82 6 130 28 108 52 169
143 201 301 38 193 -15 325 -145 361 -49 14 -139 12 -183 -4z m132 -146 c25
-47 2 -252 -39 -345 -27 -61 -54 -85 -97 -85 -31 0 -37 4 -51 38 -35 82 6 316
68 387 43 49 94 52 119 5z"/>
<path d="M10640 5563 c0 -16 9 -129 20 -253 11 -124 23 -262 26 -307 l7 -83
107 0 106 0 26 73 c42 114 107 282 109 277 0 -3 6 -81 12 -175 l12 -170 108 0
109 0 88 215 c48 118 110 268 138 333 l50 117 -82 0 -83 0 -84 -232 -84 -233
-7 115 c-4 63 -10 168 -14 233 l-6 117 -83 0 -83 0 -60 -162 c-32 -90 -69
-194 -82 -231 -12 -38 -24 -67 -25 -65 -2 2 -9 82 -15 178 -6 96 -13 199 -16
228 l-5 52 -95 0 -94 0 0 -27z"/>
<path d="M5158 5158 c-12 -30 -129 -109 -233 -158 -55 -26 -167 -71 -250 -100
-295 -104 -418 -169 -536 -282 -77 -74 -79 -79 -79 -260 l0 -130 61 59 c33 32
77 68 97 81 102 64 289 148 547 247 233 89 364 170 394 243 7 17 11 80 9 172
-2 80 -6 137 -10 128z"/>
<path d="M5121 4549 c-46 -52 -73 -69 -183 -124 -77 -38 -211 -91 -329 -130
-244 -82 -369 -134 -415 -174 -39 -35 -61 -38 -104 -16 -21 11 -30 23 -30 40
0 17 -6 25 -17 25 -29 0 -119 -46 -126 -65 -4 -9 -7 -56 -7 -104 0 -102 11
-125 71 -142 47 -15 54 -26 64 -98 4 -31 25 -89 51 -140 98 -196 268 -290 525
-291 111 0 223 25 302 67 125 67 233 219 260 368 l13 69 55 22 c67 27 79 48
79 141 0 101 -9 119 -75 149 -31 13 -60 24 -65 24 -5 0 -10 -17 -12 -37 -2
-29 -9 -41 -28 -49 -33 -16 -211 -34 -313 -33 l-82 1 64 10 c75 10 200 57 256
96 22 15 51 45 65 66 l25 39 7 -29 c3 -16 6 62 6 174 -1 111 -1 202 -2 201 -1
0 -25 -27 -55 -60z m-1141 -479 c254 -76 1086 -77 1283 -1 16 6 31 11 35 11 9
0 -1 -162 -11 -177 -8 -12 -69 -33 -97 -33 -11 0 -11 3 -2 12 7 7 12 41 12 81
l0 70 -52 -7 c-109 -14 -180 -29 -169 -35 5 -4 12 -35 13 -69 2 -46 7 -62 18
-62 9 0 10 -3 5 -9 -19 -18 -218 -31 -459 -29 -132 1 -214 4 -182 7 l59 6 -2
73 c-2 63 0 72 16 73 10 1 -36 7 -102 14 -66 7 -142 16 -170 20 l-50 7 5 -83
c5 -78 6 -84 30 -90 17 -5 19 -7 7 -8 -35 -2 -182 40 -193 55 -7 9 -10 42 -7
85 3 65 2 71 -17 76 -11 3 -20 9 -20 14 0 12 7 11 50 -1z m1097 -216 c-3 -3
-12 -4 -19 -1 -8 3 -5 6 6 6 11 1 17 -2 13 -5z m-37 -96 c0 -21 -27 -104 -45
-139 -28 -56 -88 -129 -121 -150 -45 -28 -48 -24 -15 22 30 41 72 141 91 216
9 36 16 44 43 52 44 13 47 13 47 -1z m-92 -18 c-7 -35 -282 -41 -464 -9 -65
11 -119 21 -120 22 -1 1 130 2 292 2 258 0 294 -2 292 -15z"/>
</g>
</svg>
